<svg width="80" height="80" viewBox="0 0 80 80" fill="none" xmlns="http://www.w3.org/2000/svg">
<path d="M40 0C17.92 0 0 17.92 0 40C0 62.08 17.92 80 40 80C62.08 80 80 62.08 80 40C80 17.92 62.08 0 40 0ZM45.64 64.36V72H34.96V64.28C28.12 62.84 22.32 58.44 21.88 50.68H29.72C30.12 54.88 33 58.16 40.32 58.16C48.16 58.16 49.92 54.24 49.92 51.8C49.92 48.48 48.16 45.36 39.24 43.24C29.32 40.84 22.52 36.76 22.52 28.56C22.52 21.68 28.08 17.2 34.96 15.72V8H45.64V15.8C53.08 17.6 56.8 23.24 57.04 29.36H49.2C49 24.92 46.64 21.88 40.32 21.88C34.32 21.88 30.72 24.6 30.72 28.44C30.72 31.8 33.32 34 41.4 36.08C49.48 38.16 58.12 41.64 58.12 51.72C58.08 59.04 52.6 63.04 45.64 64.36Z" fill="black"/>
</svg>
